<mxfile host="app.diagrams.net" agent="Mozilla/5.0 (Windows NT 10.0; Win64; x64) AppleWebKit/537.36 (KHTML, like Gecko) Chrome/128.0.0.0 Safari/537.36" version="24.7.10">
  <diagram name="Page-1" id="dCeT_T4BUNJsela_dvC5">
    <mxGraphModel dx="330" dy="171" grid="1" gridSize="10" guides="1" tooltips="1" connect="1" arrows="1" fold="1" page="1" pageScale="1" pageWidth="850" pageHeight="1100" math="0" shadow="0">
      <root>
        <mxCell id="0" />
        <mxCell id="1" parent="0" />
        <mxCell id="sR-qSyOgznakilGUWpc5-3" value="" style="rounded=0;whiteSpace=wrap;html=1;" parent="1" vertex="1">
          <mxGeometry x="140" y="260" width="510" height="290" as="geometry" />
        </mxCell>
        <mxCell id="fdA77Q7U3nJS3zrDmhjw-5" value="" style="edgeStyle=orthogonalEdgeStyle;rounded=0;orthogonalLoop=1;jettySize=auto;html=1;entryX=0.5;entryY=0;entryDx=0;entryDy=0;" parent="1" source="fdA77Q7U3nJS3zrDmhjw-1" target="fdA77Q7U3nJS3zrDmhjw-6" edge="1">
          <mxGeometry relative="1" as="geometry" />
        </mxCell>
        <mxCell id="fdA77Q7U3nJS3zrDmhjw-1" value="&lt;font style=&quot;font-size: 18px;&quot;&gt;ROM&lt;/font&gt;" style="rounded=0;whiteSpace=wrap;html=1;" parent="1" vertex="1">
          <mxGeometry x="160" y="180" width="80" height="60" as="geometry" />
        </mxCell>
        <mxCell id="fdA77Q7U3nJS3zrDmhjw-2" value="&lt;font style=&quot;font-size: 18px;&quot;&gt;RAM&lt;/font&gt;" style="rounded=0;whiteSpace=wrap;html=1;" parent="1" vertex="1">
          <mxGeometry x="670" y="330" width="80" height="80" as="geometry" />
        </mxCell>
        <mxCell id="fdA77Q7U3nJS3zrDmhjw-7" value="" style="edgeStyle=orthogonalEdgeStyle;rounded=0;orthogonalLoop=1;jettySize=auto;html=1;entryX=0.5;entryY=1;entryDx=0;entryDy=0;" parent="1" source="fdA77Q7U3nJS3zrDmhjw-3" target="fdA77Q7U3nJS3zrDmhjw-1" edge="1">
          <mxGeometry relative="1" as="geometry" />
        </mxCell>
        <mxCell id="fdA77Q7U3nJS3zrDmhjw-3" value="&lt;font style=&quot;font-size: 16px;&quot;&gt;ROM&amp;nbsp;&lt;/font&gt;&lt;div style=&quot;font-size: 16px;&quot;&gt;&lt;font style=&quot;font-size: 16px;&quot;&gt;Control&lt;/font&gt;&lt;/div&gt;" style="rounded=0;whiteSpace=wrap;html=1;align=center;" parent="1" vertex="1">
          <mxGeometry x="160" y="290" width="80" height="40" as="geometry" />
        </mxCell>
        <mxCell id="fdA77Q7U3nJS3zrDmhjw-6" value="&lt;font style=&quot;font-size: 16px;&quot;&gt;Data Buffer&lt;/font&gt;" style="rounded=0;whiteSpace=wrap;html=1;align=center;" parent="1" vertex="1">
          <mxGeometry x="280" y="280" width="80" height="80" as="geometry" />
        </mxCell>
        <mxCell id="fdA77Q7U3nJS3zrDmhjw-53" style="edgeStyle=orthogonalEdgeStyle;rounded=0;orthogonalLoop=1;jettySize=auto;html=1;entryX=0.25;entryY=1;entryDx=0;entryDy=0;exitX=0.5;exitY=0;exitDx=0;exitDy=0;strokeColor=#ff0000;" parent="1" source="fdA77Q7U3nJS3zrDmhjw-8" target="fdA77Q7U3nJS3zrDmhjw-3" edge="1">
          <mxGeometry relative="1" as="geometry">
            <Array as="points">
              <mxPoint x="370" y="480" />
              <mxPoint x="180" y="480" />
            </Array>
          </mxGeometry>
        </mxCell>
        <mxCell id="fdA77Q7U3nJS3zrDmhjw-64" style="edgeStyle=orthogonalEdgeStyle;rounded=0;orthogonalLoop=1;jettySize=auto;html=1;entryX=0;entryY=0.5;entryDx=0;entryDy=0;" parent="1" source="fdA77Q7U3nJS3zrDmhjw-8" target="sR-qSyOgznakilGUWpc5-1" edge="1">
          <mxGeometry relative="1" as="geometry">
            <mxPoint x="720" y="520" as="targetPoint" />
          </mxGeometry>
        </mxCell>
        <mxCell id="fdA77Q7U3nJS3zrDmhjw-8" value="&lt;span style=&quot;font-size: 16px;&quot;&gt;Control&lt;br&gt;Unit&lt;/span&gt;" style="rounded=0;whiteSpace=wrap;html=1;align=center;" parent="1" vertex="1">
          <mxGeometry x="340" y="500" width="60" height="40" as="geometry" />
        </mxCell>
        <mxCell id="fdA77Q7U3nJS3zrDmhjw-14" value="&lt;font style=&quot;font-size: 16px;&quot;&gt;1D Cubic Interpolation&lt;br&gt;module&lt;/font&gt;" style="rounded=0;whiteSpace=wrap;html=1;align=center;" parent="1" vertex="1">
          <mxGeometry x="440" y="280" width="120" height="180" as="geometry" />
        </mxCell>
        <mxCell id="fdA77Q7U3nJS3zrDmhjw-18" value="" style="endArrow=classic;html=1;rounded=0;exitX=1;exitY=0.5;exitDx=0;exitDy=0;entryX=0;entryY=0.5;entryDx=0;entryDy=0;" parent="1" source="fdA77Q7U3nJS3zrDmhjw-26" edge="1">
          <mxGeometry width="50" height="50" relative="1" as="geometry">
            <mxPoint x="190" y="449" as="sourcePoint" />
            <mxPoint x="270" y="450" as="targetPoint" />
          </mxGeometry>
        </mxCell>
        <mxCell id="fdA77Q7U3nJS3zrDmhjw-19" value="" style="endArrow=classic;html=1;rounded=0;exitX=1;exitY=0.5;exitDx=0;exitDy=0;entryX=0;entryY=0.5;entryDx=0;entryDy=0;" parent="1" source="fdA77Q7U3nJS3zrDmhjw-25" edge="1">
          <mxGeometry width="50" height="50" relative="1" as="geometry">
            <mxPoint x="190" y="430" as="sourcePoint" />
            <mxPoint x="270" y="431" as="targetPoint" />
          </mxGeometry>
        </mxCell>
        <mxCell id="fdA77Q7U3nJS3zrDmhjw-20" value="" style="endArrow=classic;html=1;rounded=0;exitX=1;exitY=0.5;exitDx=0;exitDy=0;entryX=0;entryY=0.5;entryDx=0;entryDy=0;" parent="1" source="fdA77Q7U3nJS3zrDmhjw-24" edge="1">
          <mxGeometry width="50" height="50" relative="1" as="geometry">
            <mxPoint x="190" y="410" as="sourcePoint" />
            <mxPoint x="270" y="411" as="targetPoint" />
          </mxGeometry>
        </mxCell>
        <mxCell id="fdA77Q7U3nJS3zrDmhjw-21" value="" style="endArrow=classic;html=1;rounded=0;exitX=1;exitY=0.5;exitDx=0;exitDy=0;entryX=0;entryY=0.5;entryDx=0;entryDy=0;" parent="1" source="fdA77Q7U3nJS3zrDmhjw-22" edge="1">
          <mxGeometry width="50" height="50" relative="1" as="geometry">
            <mxPoint x="190" y="390" as="sourcePoint" />
            <mxPoint x="270" y="391" as="targetPoint" />
          </mxGeometry>
        </mxCell>
        <mxCell id="fdA77Q7U3nJS3zrDmhjw-22" value="SW" style="text;html=1;align=center;verticalAlign=middle;whiteSpace=wrap;rounded=0;" parent="1" vertex="1">
          <mxGeometry x="80" y="380" width="30" height="20" as="geometry" />
        </mxCell>
        <mxCell id="fdA77Q7U3nJS3zrDmhjw-24" value="TW" style="text;html=1;align=center;verticalAlign=middle;whiteSpace=wrap;rounded=0;" parent="1" vertex="1">
          <mxGeometry x="80" y="400" width="30" height="20" as="geometry" />
        </mxCell>
        <mxCell id="fdA77Q7U3nJS3zrDmhjw-25" value="SH" style="text;html=1;align=center;verticalAlign=middle;whiteSpace=wrap;rounded=0;" parent="1" vertex="1">
          <mxGeometry x="80" y="420" width="30" height="20" as="geometry" />
        </mxCell>
        <mxCell id="fdA77Q7U3nJS3zrDmhjw-26" value="TH" style="text;html=1;align=center;verticalAlign=middle;whiteSpace=wrap;rounded=0;" parent="1" vertex="1">
          <mxGeometry x="80" y="440" width="30" height="20" as="geometry" />
        </mxCell>
        <mxCell id="fdA77Q7U3nJS3zrDmhjw-27" value="" style="endArrow=classic;html=1;rounded=0;exitX=1;exitY=0.5;exitDx=0;exitDy=0;entryX=0;entryY=0.5;entryDx=0;entryDy=0;" parent="1" source="fdA77Q7U3nJS3zrDmhjw-33" edge="1">
          <mxGeometry width="50" height="50" relative="1" as="geometry">
            <mxPoint x="119.99999999999994" y="320" as="sourcePoint" />
            <mxPoint x="160" y="320.5" as="targetPoint" />
          </mxGeometry>
        </mxCell>
        <mxCell id="fdA77Q7U3nJS3zrDmhjw-28" value="" style="endArrow=classic;html=1;rounded=0;exitX=1;exitY=0.5;exitDx=0;exitDy=0;entryX=0;entryY=0.5;entryDx=0;entryDy=0;" parent="1" source="fdA77Q7U3nJS3zrDmhjw-32" edge="1">
          <mxGeometry width="50" height="50" relative="1" as="geometry">
            <mxPoint x="119.99999999999994" y="300" as="sourcePoint" />
            <mxPoint x="160" y="300.5" as="targetPoint" />
          </mxGeometry>
        </mxCell>
        <mxCell id="fdA77Q7U3nJS3zrDmhjw-32" value="H0" style="text;html=1;align=center;verticalAlign=middle;whiteSpace=wrap;rounded=0;" parent="1" vertex="1">
          <mxGeometry x="90" y="290" width="30" height="20" as="geometry" />
        </mxCell>
        <mxCell id="fdA77Q7U3nJS3zrDmhjw-33" value="V0" style="text;html=1;align=center;verticalAlign=middle;whiteSpace=wrap;rounded=0;" parent="1" vertex="1">
          <mxGeometry x="90" y="310" width="30" height="20" as="geometry" />
        </mxCell>
        <mxCell id="fdA77Q7U3nJS3zrDmhjw-35" value="" style="endArrow=classic;html=1;rounded=0;entryX=0;entryY=0.5;entryDx=0;entryDy=0;" parent="1" edge="1">
          <mxGeometry width="50" height="50" relative="1" as="geometry">
            <mxPoint x="360" y="350" as="sourcePoint" />
            <mxPoint x="440" y="350.5" as="targetPoint" />
          </mxGeometry>
        </mxCell>
        <mxCell id="fdA77Q7U3nJS3zrDmhjw-36" value="" style="endArrow=classic;html=1;rounded=0;entryX=0;entryY=0.5;entryDx=0;entryDy=0;" parent="1" edge="1">
          <mxGeometry width="50" height="50" relative="1" as="geometry">
            <mxPoint x="360" y="329.75" as="sourcePoint" />
            <mxPoint x="440" y="330.25" as="targetPoint" />
          </mxGeometry>
        </mxCell>
        <mxCell id="fdA77Q7U3nJS3zrDmhjw-37" value="" style="endArrow=classic;html=1;rounded=0;entryX=0;entryY=0.5;entryDx=0;entryDy=0;" parent="1" edge="1">
          <mxGeometry width="50" height="50" relative="1" as="geometry">
            <mxPoint x="360" y="309.75" as="sourcePoint" />
            <mxPoint x="440" y="310.25" as="targetPoint" />
          </mxGeometry>
        </mxCell>
        <mxCell id="fdA77Q7U3nJS3zrDmhjw-38" value="" style="endArrow=classic;html=1;rounded=0;entryX=0;entryY=0.5;entryDx=0;entryDy=0;" parent="1" edge="1">
          <mxGeometry width="50" height="50" relative="1" as="geometry">
            <mxPoint x="360" y="290" as="sourcePoint" />
            <mxPoint x="440" y="290.5" as="targetPoint" />
          </mxGeometry>
        </mxCell>
        <mxCell id="fdA77Q7U3nJS3zrDmhjw-51" value="" style="edgeStyle=orthogonalEdgeStyle;rounded=0;orthogonalLoop=1;jettySize=auto;html=1;" parent="1" source="fdA77Q7U3nJS3zrDmhjw-40" target="fdA77Q7U3nJS3zrDmhjw-2" edge="1">
          <mxGeometry relative="1" as="geometry" />
        </mxCell>
        <mxCell id="fdA77Q7U3nJS3zrDmhjw-40" value="&lt;font style=&quot;font-size: 16px;&quot;&gt;RAM&amp;nbsp;&lt;/font&gt;&lt;div style=&quot;font-size: 16px;&quot;&gt;&lt;font style=&quot;font-size: 16px;&quot;&gt;Control&lt;/font&gt;&lt;/div&gt;" style="rounded=0;whiteSpace=wrap;html=1;align=center;" parent="1" vertex="1">
          <mxGeometry x="570" y="460" width="70" height="40" as="geometry" />
        </mxCell>
        <mxCell id="fdA77Q7U3nJS3zrDmhjw-41" value="" style="endArrow=classic;html=1;rounded=0;entryX=0;entryY=0.5;entryDx=0;entryDy=0;exitX=1;exitY=0.5;exitDx=0;exitDy=0;" parent="1" source="fdA77Q7U3nJS3zrDmhjw-14" target="fdA77Q7U3nJS3zrDmhjw-2" edge="1">
          <mxGeometry width="50" height="50" relative="1" as="geometry">
            <mxPoint x="530" y="369.72" as="sourcePoint" />
            <mxPoint x="610" y="370.22" as="targetPoint" />
          </mxGeometry>
        </mxCell>
        <mxCell id="fdA77Q7U3nJS3zrDmhjw-42" value="" style="endArrow=classic;html=1;rounded=0;entryX=0;entryY=0.5;entryDx=0;entryDy=0;exitX=1;exitY=0.469;exitDx=0;exitDy=0;exitPerimeter=0;" parent="1" edge="1" source="Ad5kLFiIb3YXx4Re1d58-3">
          <mxGeometry width="50" height="50" relative="1" as="geometry">
            <mxPoint x="360" y="439.5" as="sourcePoint" />
            <mxPoint x="440" y="440" as="targetPoint" />
          </mxGeometry>
        </mxCell>
        <mxCell id="fdA77Q7U3nJS3zrDmhjw-43" value="" style="endArrow=classic;html=1;rounded=0;entryX=0;entryY=0.5;entryDx=0;entryDy=0;exitX=0.997;exitY=0.48;exitDx=0;exitDy=0;exitPerimeter=0;" parent="1" edge="1" source="Ad5kLFiIb3YXx4Re1d58-1">
          <mxGeometry width="50" height="50" relative="1" as="geometry">
            <mxPoint x="360" y="400" as="sourcePoint" />
            <mxPoint x="440" y="400.5" as="targetPoint" />
          </mxGeometry>
        </mxCell>
        <mxCell id="fdA77Q7U3nJS3zrDmhjw-44" value="data0" style="text;html=1;align=center;verticalAlign=middle;whiteSpace=wrap;rounded=0;fontSize=10;" parent="1" vertex="1">
          <mxGeometry x="370" y="273" width="50" height="20" as="geometry" />
        </mxCell>
        <mxCell id="fdA77Q7U3nJS3zrDmhjw-45" value="data1" style="text;html=1;align=center;verticalAlign=middle;whiteSpace=wrap;rounded=0;fontSize=10;" parent="1" vertex="1">
          <mxGeometry x="370" y="293" width="50" height="20" as="geometry" />
        </mxCell>
        <mxCell id="fdA77Q7U3nJS3zrDmhjw-46" value="data2" style="text;html=1;align=center;verticalAlign=middle;whiteSpace=wrap;rounded=0;fontSize=10;" parent="1" vertex="1">
          <mxGeometry x="370" y="313" width="50" height="20" as="geometry" />
        </mxCell>
        <mxCell id="fdA77Q7U3nJS3zrDmhjw-47" value="data3" style="text;html=1;align=center;verticalAlign=middle;whiteSpace=wrap;rounded=0;fontSize=10;" parent="1" vertex="1">
          <mxGeometry x="370" y="333" width="50" height="20" as="geometry" />
        </mxCell>
        <mxCell id="fdA77Q7U3nJS3zrDmhjw-48" value="float_x_new" style="text;html=1;align=center;verticalAlign=middle;whiteSpace=wrap;rounded=0;fontSize=10;" parent="1" vertex="1">
          <mxGeometry x="365" y="382" width="70" height="20" as="geometry" />
        </mxCell>
        <mxCell id="fdA77Q7U3nJS3zrDmhjw-49" value="float_y_new" style="text;html=1;align=center;verticalAlign=middle;whiteSpace=wrap;rounded=0;fontSize=10;" parent="1" vertex="1">
          <mxGeometry x="365" y="422" width="70" height="20" as="geometry" />
        </mxCell>
        <mxCell id="fdA77Q7U3nJS3zrDmhjw-54" style="edgeStyle=orthogonalEdgeStyle;rounded=0;orthogonalLoop=1;jettySize=auto;html=1;entryX=0;entryY=0.5;entryDx=0;entryDy=0;startArrow=classic;startFill=1;" parent="1" source="fdA77Q7U3nJS3zrDmhjw-50" target="fdA77Q7U3nJS3zrDmhjw-8" edge="1">
          <mxGeometry relative="1" as="geometry" />
        </mxCell>
        <mxCell id="fdA77Q7U3nJS3zrDmhjw-50" value="&lt;span style=&quot;font-size: 16px;&quot;&gt;counter&lt;/span&gt;" style="rounded=0;whiteSpace=wrap;html=1;align=center;" parent="1" vertex="1">
          <mxGeometry x="240" y="500" width="60" height="40" as="geometry" />
        </mxCell>
        <mxCell id="fdA77Q7U3nJS3zrDmhjw-57" style="edgeStyle=orthogonalEdgeStyle;rounded=0;orthogonalLoop=1;jettySize=auto;html=1;strokeColor=#ff0000;entryX=1;entryY=0.75;entryDx=0;entryDy=0;" parent="1" source="fdA77Q7U3nJS3zrDmhjw-55" target="Ad5kLFiIb3YXx4Re1d58-1" edge="1">
          <mxGeometry relative="1" as="geometry">
            <mxPoint x="320" y="450" as="targetPoint" />
            <Array as="points">
              <mxPoint x="370" y="480" />
              <mxPoint x="370" y="408" />
            </Array>
          </mxGeometry>
        </mxCell>
        <mxCell id="fdA77Q7U3nJS3zrDmhjw-58" style="edgeStyle=orthogonalEdgeStyle;rounded=0;orthogonalLoop=1;jettySize=auto;html=1;strokeColor=#ff0000;" parent="1" source="fdA77Q7U3nJS3zrDmhjw-55" target="fdA77Q7U3nJS3zrDmhjw-40" edge="1">
          <mxGeometry relative="1" as="geometry" />
        </mxCell>
        <mxCell id="fdA77Q7U3nJS3zrDmhjw-55" value="" style="shape=waypoint;sketch=0;fillStyle=solid;size=6;pointerEvents=1;points=[];fillColor=none;resizable=0;rotatable=0;perimeter=centerPerimeter;snapToPoint=1;strokeColor=#ff0000;" parent="1" vertex="1">
          <mxGeometry x="360" y="470" width="20" height="20" as="geometry" />
        </mxCell>
        <mxCell id="fdA77Q7U3nJS3zrDmhjw-59" value="" style="shape=waypoint;sketch=0;fillStyle=solid;size=6;pointerEvents=1;points=[];fillColor=none;resizable=0;rotatable=0;perimeter=centerPerimeter;snapToPoint=1;strokeColor=#ff0000;" parent="1" vertex="1">
          <mxGeometry x="170" y="340" width="20" height="20" as="geometry" />
        </mxCell>
        <mxCell id="fdA77Q7U3nJS3zrDmhjw-61" style="edgeStyle=orthogonalEdgeStyle;rounded=0;orthogonalLoop=1;jettySize=auto;html=1;entryX=0;entryY=0.875;entryDx=0;entryDy=0;entryPerimeter=0;strokeColor=#ff0000;exitX=0.363;exitY=0.494;exitDx=0;exitDy=0;exitPerimeter=0;" parent="1" source="fdA77Q7U3nJS3zrDmhjw-59" target="fdA77Q7U3nJS3zrDmhjw-6" edge="1">
          <mxGeometry relative="1" as="geometry" />
        </mxCell>
        <mxCell id="fdA77Q7U3nJS3zrDmhjw-63" style="edgeStyle=orthogonalEdgeStyle;rounded=0;orthogonalLoop=1;jettySize=auto;html=1;entryX=0.5;entryY=1;entryDx=0;entryDy=0;strokeColor=#FF0000;" parent="1" source="fdA77Q7U3nJS3zrDmhjw-62" target="fdA77Q7U3nJS3zrDmhjw-14" edge="1">
          <mxGeometry relative="1" as="geometry" />
        </mxCell>
        <mxCell id="fdA77Q7U3nJS3zrDmhjw-62" value="" style="shape=waypoint;sketch=0;fillStyle=solid;size=6;pointerEvents=1;points=[];fillColor=none;resizable=0;rotatable=0;perimeter=centerPerimeter;snapToPoint=1;strokeColor=#ff0000;" parent="1" vertex="1">
          <mxGeometry x="490" y="470" width="20" height="20" as="geometry" />
        </mxCell>
        <mxCell id="sR-qSyOgznakilGUWpc5-1" value="DONE" style="text;html=1;align=center;verticalAlign=middle;whiteSpace=wrap;rounded=0;" parent="1" vertex="1">
          <mxGeometry x="700" y="510" width="50" height="20" as="geometry" />
        </mxCell>
        <mxCell id="sR-qSyOgznakilGUWpc5-4" value="&lt;b&gt;&lt;font style=&quot;font-size: 16px;&quot;&gt;Bicubic Search Engine&lt;/font&gt;&lt;/b&gt;" style="text;html=1;align=center;verticalAlign=middle;whiteSpace=wrap;rounded=0;fontColor=#0000FF;" parent="1" vertex="1">
          <mxGeometry x="437" y="525" width="190" height="20" as="geometry" />
        </mxCell>
        <mxCell id="Ad5kLFiIb3YXx4Re1d58-1" value="&lt;font style=&quot;font-size: 16px;&quot;&gt;Multi_Div&lt;/font&gt;" style="rounded=0;whiteSpace=wrap;html=1;align=center;" vertex="1" parent="1">
          <mxGeometry x="270" y="385" width="80" height="30" as="geometry" />
        </mxCell>
        <mxCell id="Ad5kLFiIb3YXx4Re1d58-3" value="&lt;font style=&quot;font-size: 16px;&quot;&gt;Multi_Div&lt;/font&gt;" style="rounded=0;whiteSpace=wrap;html=1;align=center;" vertex="1" parent="1">
          <mxGeometry x="270" y="425" width="80" height="30" as="geometry" />
        </mxCell>
        <mxCell id="Ad5kLFiIb3YXx4Re1d58-4" value="" style="endArrow=classic;html=1;rounded=0;entryX=0.5;entryY=1;entryDx=0;entryDy=0;exitX=0.5;exitY=1;exitDx=0;exitDy=0;edgeStyle=orthogonalEdgeStyle;" edge="1" parent="1" source="Ad5kLFiIb3YXx4Re1d58-3" target="fdA77Q7U3nJS3zrDmhjw-3">
          <mxGeometry width="50" height="50" relative="1" as="geometry">
            <mxPoint x="370" y="449.5" as="sourcePoint" />
            <mxPoint x="450" y="450" as="targetPoint" />
            <Array as="points">
              <mxPoint x="310" y="470" />
              <mxPoint x="200" y="470" />
            </Array>
          </mxGeometry>
        </mxCell>
        <mxCell id="Ad5kLFiIb3YXx4Re1d58-6" value="" style="endArrow=classic;html=1;rounded=0;entryX=0.75;entryY=1;entryDx=0;entryDy=0;exitX=0.5;exitY=0;exitDx=0;exitDy=0;edgeStyle=orthogonalEdgeStyle;" edge="1" parent="1" source="Ad5kLFiIb3YXx4Re1d58-1" target="fdA77Q7U3nJS3zrDmhjw-3">
          <mxGeometry width="50" height="50" relative="1" as="geometry">
            <mxPoint x="310" y="465" as="sourcePoint" />
            <mxPoint x="230" y="340" as="targetPoint" />
            <Array as="points">
              <mxPoint x="310" y="370" />
              <mxPoint x="220" y="370" />
            </Array>
          </mxGeometry>
        </mxCell>
        <mxCell id="Ad5kLFiIb3YXx4Re1d58-10" style="edgeStyle=orthogonalEdgeStyle;rounded=0;orthogonalLoop=1;jettySize=auto;html=1;entryX=1;entryY=0.75;entryDx=0;entryDy=0;strokeColor=#FF0000;" edge="1" parent="1" source="Ad5kLFiIb3YXx4Re1d58-9" target="Ad5kLFiIb3YXx4Re1d58-3">
          <mxGeometry relative="1" as="geometry" />
        </mxCell>
        <mxCell id="Ad5kLFiIb3YXx4Re1d58-9" value="" style="shape=waypoint;sketch=0;fillStyle=solid;size=6;pointerEvents=1;points=[];fillColor=none;resizable=0;rotatable=0;perimeter=centerPerimeter;snapToPoint=1;strokeColor=#ff0000;" vertex="1" parent="1">
          <mxGeometry x="360" y="438" width="20" height="20" as="geometry" />
        </mxCell>
        <mxCell id="Ad5kLFiIb3YXx4Re1d58-11" value="int_y_new" style="text;html=1;align=center;verticalAlign=middle;whiteSpace=wrap;rounded=0;fontSize=10;" vertex="1" parent="1">
          <mxGeometry x="248" y="452" width="70" height="20" as="geometry" />
        </mxCell>
        <mxCell id="Ad5kLFiIb3YXx4Re1d58-12" value="int_x_new" style="text;html=1;align=center;verticalAlign=middle;whiteSpace=wrap;rounded=0;fontSize=10;" vertex="1" parent="1">
          <mxGeometry x="254" y="364" width="58" height="20" as="geometry" />
        </mxCell>
      </root>
    </mxGraphModel>
  </diagram>
</mxfile>
